<?xml version="1.0" standalone="no"?>
<!DOCTYPE svg PUBLIC "-//W3C//DTD SVG 20010904//EN"
 "http://www.w3.org/TR/2001/REC-SVG-20010904/DTD/svg10.dtd">
<svg version="1.0" xmlns="http://www.w3.org/2000/svg"
 width="1280.000000pt" height="720.000000pt" viewBox="0 0 1280.000000 720.000000"
 preserveAspectRatio="xMidYMid meet">

<g transform="translate(0.000000,720.000000) scale(0.100000,-0.100000)"
fill="#000000" stroke="none">
<path d="M5237 4959 c-134 -15 -259 -64 -372 -144 -65 -46 -172 -154 -201
-205 -12 -20 -24 -28 -34 -25 -110 43 -304 67 -435 54 -44 -4 -88 -8 -97 -8
-17 -1 -18 -57 -18 -1030 l0 -1030 48 -8 c26 -4 103 -8 172 -7 436 4 818 277
970 693 59 160 60 183 60 987 0 581 -3 734 -12 733 -7 -1 -44 -5 -81 -10z"/>
<path d="M5725 4953 c-121 -44 -196 -110 -249 -222 -28 -60 -31 -75 -31 -166
0 -92 3 -106 32 -167 54 -114 156 -198 278 -229 l48 -12 -51 -13 c-104 -27
-185 -85 -240 -172 -62 -98 -62 -93 -62 -790 l0 -635 70 7 c138 14 293 72 401
152 67 49 170 161 212 231 47 77 85 177 103 271 17 88 19 562 3 631 -34 149
-172 285 -310 307 l-43 7 59 17 c85 23 141 55 194 109 197 196 138 528 -115
652 -58 29 -79 34 -158 36 -68 3 -103 -1 -141 -14z"/>
<path d="M7220 4626 c-97 -21 -185 -53 -280 -102 -259 -134 -440 -358 -526
-649 -35 -122 -44 -337 -20 -469 54 -282 212 -522 449 -680 162 -108 329 -163
528 -173 194 -10 359 26 531 114 285 146 483 409 549 725 27 131 23 338 -9
460 -98 367 -367 642 -738 754 -78 23 -110 27 -254 30 -112 2 -186 -1 -230
-10z"/>
<path d="M8755 3300 c-118 -39 -216 -140 -256 -262 -89 -276 159 -559 444
-507 92 16 160 54 227 125 114 122 138 283 66 438 -37 80 -97 141 -182 183
-65 32 -86 37 -157 40 -62 2 -97 -2 -142 -17z"/>
<path d="M9360 2400 l0 -90 410 0 410 0 0 90 0 90 -410 0 -410 0 0 -90z"/>
</g>
</svg>
