<?xml version="1.0" standalone="no"?>
<!DOCTYPE svg PUBLIC "-//W3C//DTD SVG 20010904//EN"
 "http://www.w3.org/TR/2001/REC-SVG-20010904/DTD/svg10.dtd">
<svg version="1.0" xmlns="http://www.w3.org/2000/svg"
 width="1500.000000pt" height="1500.000000pt" viewBox="0 0 1500.000000 1500.000000"
 preserveAspectRatio="xMidYMid meet">

<g transform="translate(0.000000,1500.000000) scale(0.100000,-0.100000)"
fill="#000000" stroke="none">
<path d="M0 7500 l0 -7500 7500 0 7500 0 0 7500 0 7500 -7500 0 -7500 0 0
-7500z m7945 6030 c937 -43 1869 -187 2610 -405 553 -163 1011 -356 1430 -604
l120 -71 5 -2006 5 -2007 180 -34 c509 -96 1554 -350 1554 -378 0 -5 -81 -108
-180 -228 -99 -121 -179 -220 -177 -221 2 -2 77 -20 168 -41 371 -84 1222
-303 1256 -323 8 -5 -43 -97 -143 -262 -84 -140 -225 -377 -313 -525 l-159
-271 -26 -259 c-36 -367 -97 -929 -101 -934 -2 -2 -47 8 -101 23 -150 42 -467
126 -475 126 -5 0 -8 -24 -8 -52 l0 -53 -460 -415 c-253 -228 -466 -416 -474
-418 -8 -2 -99 24 -202 58 -242 79 -594 184 -859 256 -172 47 -211 55 -218 43
-322 -528 -541 -823 -862 -1157 -103 -108 -105 -111 -129 -194 -115 -394 -409
-744 -786 -933 -194 -97 -374 -143 -595 -152 l-150 -6 -135 -74 c-293 -161
-665 -334 -1028 -477 l-192 -76 -192 76 c-481 190 -898 393 -1313 639 l-140
83 -140 12 c-538 43 -1083 122 -1423 206 -576 142 -1073 448 -1265 779 -64
111 -89 197 -95 325 -5 138 9 206 67 325 95 192 284 366 579 535 l72 41 -15
29 c-9 17 -19 30 -24 30 -37 0 -758 -210 -1063 -309 -102 -34 -191 -61 -199
-61 -8 0 -221 187 -474 416 l-460 415 -5 54 -5 53 -278 -75 c-153 -41 -280
-73 -281 -72 -2 2 -172 509 -379 1126 l-376 1122 67 20 c230 68 1028 270 1249
317 45 9 87 20 93 24 8 5 -53 86 -169 226 -99 121 -180 224 -180 229 0 28
1045 282 1554 378 l180 34 5 2007 5 2006 120 71 c419 248 877 441 1430 604
1011 297 2382 456 3500 405z"/>
<path d="M7195 13224 c-1070 -47 -1953 -183 -2751 -425 -420 -127 -883 -320
-1176 -491 l-68 -39 0 -2048 0 -2048 -52 -7 c-110 -15 -553 -99 -798 -152
-242 -53 -651 -151 -658 -159 -5 -4 157 -199 169 -203 4 -2 144 24 311 57
1467 291 2812 448 4393 512 374 16 1515 16 1895 0 1581 -63 2973 -227 4434
-521 138 -27 253 -47 256 -43 4 5 42 50 84 101 43 51 77 95 74 97 -7 8 -414
106 -658 159 -245 53 -688 137 -797 152 l-53 7 0 2048 0 2049 -52 30 c-29 17
-127 68 -218 114 -861 437 -2034 709 -3430 796 -174 11 -769 20 -905 14z m831
-366 c26 -26 43 -627 25 -883 -47 -675 -217 -1344 -482 -1904 l-59 -124 16
-46 c13 -38 14 -64 8 -146 -5 -55 -8 -203 -8 -330 1 -245 13 -337 54 -433 20
-46 27 -52 86 -77 89 -38 142 -79 163 -126 13 -27 35 -50 77 -77 100 -65 166
-153 180 -241 l7 -41 -823 0 -823 0 7 60 c20 172 88 257 222 276 48 6 50 8 77
65 42 88 119 138 213 139 38 0 47 6 93 56 116 127 191 372 191 626 l0 77 -55
20 c-31 12 -62 21 -70 21 -39 0 -45 11 -45 85 0 70 1 73 26 79 23 6 25 10 18
39 -10 50 -45 112 -157 283 -272 414 -455 766 -566 1089 -125 362 -209 845
-214 1239 l-2 149 54 19 c152 53 456 91 901 112 88 4 881 -1 886 -6z m744
-107 l45 -17 3 -59 c5 -87 -16 -387 -39 -560 -43 -321 -124 -645 -225 -900
-111 -277 -306 -637 -532 -980 -102 -156 -133 -212 -146 -266 -5 -23 -2 -28
19 -33 24 -6 25 -10 25 -81 l0 -74 -42 -11 c-79 -20 -106 -31 -119 -46 -9 -11
-10 -44 -5 -127 17 -270 76 -447 192 -576 43 -48 49 -51 93 -51 94 0 207 -86
226 -172 5 -22 12 -28 34 -28 48 0 125 -28 158 -58 54 -50 93 -154 93 -247 l0
-35 -64 0 -63 0 -6 40 c-13 99 -84 181 -194 225 -44 18 -60 30 -68 52 -28 79
-84 132 -190 178 -128 57 -219 265 -245 561 -6 66 -8 154 -4 197 6 72 9 79 38
99 17 12 37 28 44 36 15 20 16 76 0 101 -10 16 0 39 64 152 398 704 638 1355
729 1978 34 237 36 595 3 728 l-6 21 69 -15 c37 -9 88 -23 113 -32z m-3032
-243 c88 -42 202 -149 202 -191 0 -70 -96 -157 -173 -157 -76 0 -126 88 -112
198 l7 55 -39 -23 c-60 -36 -114 -91 -135 -139 -17 -37 -19 -56 -14 -120 27
-311 109 -743 163 -858 20 -43 37 -61 97 -101 78 -52 254 -140 423 -212 56
-23 104 -48 106 -54 3 -6 14 -35 26 -63 l21 -53 -63 24 c-353 133 -670 284
-709 337 -34 45 -90 321 -163 789 -50 319 -53 374 -27 427 60 116 181 189 292
175 19 -2 64 -17 98 -34z m-596 -181 c-3 -69 3 -165 13 -246 9 -73 15 -134 13
-136 -1 -1 -81 -24 -176 -49 -211 -57 -473 -141 -644 -208 l-128 -49 -2 -1662
-3 -1661 -140 -17 c-77 -10 -183 -24 -235 -32 -52 -8 -97 -13 -99 -11 -2 2 -6
835 -9 1851 l-4 1848 63 29 c414 186 707 289 1144 401 116 30 210 55 210 55 0
0 -1 -51 -3 -113z m4898 -157 c323 -85 689 -208 915 -309 l90 -40 3 -1771 2
-1770 -37 5 c-21 4 -83 12 -138 18 l-100 12 3 1661 4 1661 -44 18 c-206 83
-541 191 -788 255 l-125 32 17 131 c9 73 17 133 17 135 2 6 39 -1 181 -38z"/>
<path d="M6830 8069 c-184 -4 -372 -11 -417 -14 l-83 -7 0 -46 c0 -64 89
-1841 96 -1921 l6 -63 221 6 c122 3 284 9 359 12 l137 6 -6 304 c-5 270 -4
304 9 304 14 0 17 -40 23 -303 l7 -304 557 -6 c531 -6 777 -14 1176 -37 1674
-97 3342 -363 4929 -786 92 -25 171 -43 173 -40 7 7 26 183 68 641 l36 390
126 220 c70 121 189 325 265 454 76 129 136 236 134 239 -14 13 -662 178
-1066 270 -2219 509 -4455 735 -6750 681z m458 -395 l2 -191 -182 -7 c-101 -4
-183 -8 -184 -9 0 -1 1 -50 4 -109 l4 -108 144 0 144 0 0 -195 0 -195 -141 0
-142 0 7 -182 c3 -101 7 -239 8 -308 l3 -125 -170 -5 c-94 -3 -172 -4 -175 -2
-7 5 -73 1602 -67 1609 6 5 551 21 672 19 l70 -1 3 -191z m437 -419 l-8 -615
65 0 c65 0 66 0 72 31 3 17 6 106 6 198 0 91 3 352 7 579 l6 412 190 0 189 0
-6 -142 c-3 -79 -16 -442 -27 -808 -12 -366 -22 -666 -23 -666 0 -1 -189 1
-418 4 l-417 5 -3 801 c-2 441 -2 804 0 809 2 4 87 7 189 7 l185 0 -7 -615z
m962 581 c7 -6 -41 -1049 -53 -1168 l-6 -58 74 0 c40 0 104 -3 142 -7 l69 -6
-7 -101 c-3 -56 -9 -143 -12 -194 l-7 -93 -71 6 c-39 3 -179 10 -310 15 -132
6 -241 11 -242 13 -1 1 11 360 27 797 15 437 28 800 29 805 0 11 356 2 367 -9z
m671 -33 l72 -6 0 -35 c0 -19 -20 -278 -45 -576 -25 -298 -46 -557 -47 -576
l-3 -35 133 -11 c73 -7 136 -14 139 -18 6 -5 -26 -368 -33 -375 -4 -4 -471 24
-572 35 l-53 6 6 56 c5 47 105 1525 105 1548 0 6 140 1 298 -13z m812 -69
c308 -30 513 -53 518 -59 4 -4 -66 -527 -72 -532 -3 -4 -347 37 -356 42 -3 2
-3 34 2 71 5 37 6 70 1 74 -4 4 -36 10 -69 13 l-62 5 -5 -35 c-6 -33 3 -45
152 -231 86 -108 185 -233 219 -278 l62 -80 -45 -324 c-25 -177 -45 -323 -45
-324 0 -1 -71 6 -157 16 -87 10 -272 29 -412 42 -139 14 -255 27 -257 29 -6 5
47 521 55 529 3 4 71 1 151 -7 80 -8 157 -15 173 -15 l27 0 -6 -80 c-7 -76 -6
-80 13 -80 11 0 40 -3 65 -6 l45 -6 6 37 c6 36 1 43 -132 208 -76 95 -174 216
-219 271 -57 68 -82 106 -82 125 0 14 14 159 30 321 16 162 30 299 30 303 0 4
26 5 58 2 31 -3 172 -17 312 -31z m940 -110 c146 -19 306 -41 355 -49 50 -8
93 -15 98 -15 4 0 7 -10 7 -23 0 -29 -58 -349 -65 -355 -3 -3 -52 2 -110 10
-58 8 -105 12 -105 10 0 -13 -202 -1198 -205 -1203 -4 -5 -335 37 -342 44 -2
2 37 269 87 593 49 324 90 596 90 606 0 13 -19 18 -105 28 -71 9 -105 17 -105
26 0 6 11 89 25 184 14 95 25 176 25 182 0 5 18 7 43 3 23 -3 161 -21 307 -41z
m832 -125 c108 -18 200 -35 205 -38 16 -12 -34 -1611 -51 -1629 -3 -3 -80 8
-171 24 l-165 29 0 77 c0 89 14 78 -130 102 -47 8 -88 11 -91 8 -4 -4 -17 -38
-29 -75 -21 -65 -23 -68 -49 -63 -14 3 -87 15 -161 26 -74 11 -140 22 -146 25
-12 4 112 361 339 970 208 561 217 583 235 579 9 -2 106 -18 214 -35z m1346
-260 c78 -17 102 -26 102 -38 0 -19 -127 -502 -134 -508 -4 -4 -345 67 -355
74 -2 1 4 31 13 67 9 36 16 69 16 74 0 9 -128 38 -134 31 -2 -2 -45 -177 -95
-389 -51 -212 -94 -394 -97 -406 -5 -19 1 -22 55 -33 34 -7 65 -10 70 -7 5 3
11 20 15 38 3 17 11 48 16 68 l10 37 171 -37 c93 -21 172 -40 174 -42 4 -3
-108 -439 -130 -506 -5 -18 -12 -17 -133 10 -70 15 -251 53 -402 83 -151 31
-276 58 -279 61 -4 4 329 1523 344 1570 3 11 358 -57 773 -147z m417 -95 c61
-15 113 -29 117 -33 5 -4 -26 -125 -68 -270 -41 -145 -73 -265 -71 -267 2 -2
65 105 140 239 75 133 140 248 145 254 6 10 50 2 182 -32 96 -25 178 -46 182
-48 4 -1 -56 -112 -133 -247 -77 -135 -171 -301 -208 -370 l-68 -125 -33 -405
c-17 -223 -33 -406 -34 -407 -1 -1 -77 17 -169 40 l-167 42 0 40 c0 22 7 154
15 294 9 139 14 255 13 257 -2 1 -39 -123 -83 -277 -63 -224 -82 -279 -95
-276 -8 2 -82 19 -164 38 -82 18 -150 39 -153 45 -4 10 401 1537 413 1555 4 7
21 4 239 -47z"/>
<path d="M11736 6659 c-38 -110 -67 -201 -65 -203 4 -4 113 -25 115 -23 4 4
24 420 21 423 -1 2 -34 -87 -71 -197z"/>
<path d="M5805 8024 c-1459 -97 -2826 -292 -4230 -605 -370 -82 -1227 -297
-1241 -311 -4 -4 623 -1938 631 -1946 2 -2 115 26 252 62 136 36 289 75 338
87 50 12 93 25 97 28 5 4 -30 139 -76 300 -55 191 -80 294 -72 296 64 19 150
34 156 28 4 -4 42 -136 85 -293 43 -157 80 -286 81 -288 1 -2 123 24 271 57
856 192 1756 345 2607 441 98 11 182 22 185 25 4 2 -9 138 -30 302 -20 164
-36 300 -34 302 8 7 160 20 166 13 3 -4 21 -140 39 -302 18 -162 34 -296 35
-298 1 -1 103 6 226 17 305 28 454 39 728 56 128 8 235 16 237 18 2 2 -9 216
-24 477 l-28 473 -65 58 -64 58 57 1 c31 0 59 3 61 8 2 4 -9 210 -24 457 -15
248 -28 460 -28 473 -1 21 -5 22 -68 21 -38 -1 -158 -7 -268 -15z m146 -221
c0 -10 8 -130 17 -266 10 -137 15 -250 12 -252 -11 -7 -350 -28 -356 -23 -3 3
-8 38 -11 77 -7 79 -2 75 -90 65 -52 -7 -53 -7 -53 -40 0 -31 11 -43 127 -141
70 -60 193 -165 273 -235 l146 -126 21 -323 c12 -178 20 -325 18 -328 -2 -2
-64 -7 -137 -12 -73 -5 -256 -18 -406 -30 -150 -12 -275 -19 -279 -16 -9 10
-63 521 -55 528 7 7 250 29 314 29 l36 0 7 -76 8 -76 30 6 c16 3 47 6 69 6
l39 0 -6 38 c-5 25 -18 48 -43 71 -39 35 -427 360 -477 399 l-29 23 -33 302
c-18 166 -33 314 -33 328 l0 26 158 13 c297 24 617 48 675 49 48 1 57 -2 58
-16z m-960 -75 c0 -13 24 -237 53 -498 29 -261 53 -476 52 -477 -1 -1 -111
-13 -246 -28 -134 -14 -245 -27 -246 -28 -1 -1 16 -136 38 -300 22 -164 38
-301 35 -304 -7 -6 -337 -47 -341 -42 -6 9 -238 1590 -234 1595 8 7 748 95
871 103 11 1 17 -6 18 -21z m-961 -98 c0 -5 54 -363 121 -796 66 -432 118
-789 115 -791 -9 -9 -331 -51 -337 -44 -7 6 -269 1543 -269 1574 0 9 3 17 8
17 4 1 79 11 167 24 189 28 195 29 195 16z m-736 -117 c3 -10 53 -277 111
-593 59 -316 108 -580 110 -586 2 -8 37 -5 117 7 182 30 159 50 197 -167 17
-103 31 -188 29 -189 -2 -2 -104 -20 -228 -39 -124 -20 -261 -42 -305 -50 -44
-8 -81 -13 -81 -13 -7 7 -322 1582 -318 1586 6 6 306 59 341 60 12 1 24 -6 27
-16z m-439 -75 c17 -73 323 -1563 321 -1565 -4 -5 -338 -64 -341 -61 -7 7
-353 1573 -349 1577 4 4 322 67 351 70 7 1 15 -9 18 -21z m-436 -95 c23 -86
352 -1546 349 -1548 -13 -9 -332 -65 -338 -58 -4 4 -39 136 -76 292 -38 156
-74 286 -81 288 -20 8 -123 -18 -123 -30 0 -7 34 -141 74 -300 73 -283 74
-287 53 -292 -246 -57 -327 -72 -327 -60 0 3 -92 346 -204 763 -112 416 -206
766 -207 776 -4 18 13 24 161 58 91 20 174 36 184 35 17 -2 30 -41 92 -290 39
-159 74 -291 77 -293 5 -5 114 14 128 22 3 2 -26 137 -66 299 -49 199 -69 298
-61 301 9 3 326 70 348 73 4 1 12 -16 17 -36z m-823 -651 c72 -262 129 -480
125 -484 -3 -3 -106 -30 -228 -59 -123 -29 -228 -56 -235 -60 -8 -5 13 -89 75
-300 48 -161 86 -293 85 -294 -12 -8 -331 -85 -335 -81 -3 3 -115 351 -248
773 -192 608 -240 770 -229 776 7 4 184 50 391 102 450 111 457 113 463 108 3
-2 64 -219 136 -481z"/>
<path d="M4552 7313 c-36 -5 -35 10 -11 -148 5 -33 9 -64 9 -69 0 -8 128 -1
136 7 4 4 -13 153 -22 195 -5 23 -24 26 -112 15z"/>
<path d="M1127 6695 c-27 -7 -51 -15 -53 -17 -2 -3 10 -52 27 -110 l31 -105
67 17 c36 9 65 21 65 26 -1 5 -14 53 -29 107 -30 107 -27 104 -108 82z"/>
<path d="M6750 5870 c-1676 -58 -3312 -275 -4888 -650 -133 -32 -133 -32 -130
-60 2 -22 70 -88 338 -330 184 -166 340 -304 346 -307 6 -2 99 23 205 57 254
80 577 173 869 250 153 40 242 68 254 80 20 19 21 18 81 -98 34 -64 94 -171
133 -236 40 -66 72 -122 72 -126 0 -3 -89 -55 -197 -116 -247 -136 -379 -223
-476 -314 -273 -255 -285 -531 -34 -796 87 -92 189 -175 302 -244 94 -58 328
-170 448 -214 342 -126 1050 -241 1807 -292 l245 -16 140 -81 c182 -105 518
-277 719 -367 203 -92 494 -210 516 -210 22 0 315 119 513 209 178 80 404 192
554 274 l102 56 58 -10 c88 -15 316 -12 414 5 361 65 688 287 884 600 91 146
166 357 182 506 6 63 8 67 68 130 368 389 725 885 921 1282 38 77 38 77 59 59
13 -12 106 -42 255 -81 293 -77 617 -170 869 -250 106 -34 199 -59 205 -57 6
3 162 141 346 307 300 271 335 306 335 333 0 36 29 27 -320 106 -1447 330
-2817 513 -4430 592 -284 14 -1449 19 -1765 9z m1450 -168 c45 -23 59 -36 82
-81 23 -44 28 -66 28 -123 0 -96 -17 -145 -65 -194 -52 -52 -108 -68 -215 -62
-146 8 -219 80 -228 223 -9 149 56 242 187 265 71 12 150 2 211 -28z m-920
-17 l0 -45 -100 0 -100 0 0 -53 0 -53 95 4 95 4 0 -46 0 -46 -92 0 -93 0 3
-60 4 -60 93 0 93 0 4 -39 c3 -38 2 -39 -32 -45 -19 -3 -87 -6 -152 -6 l-116
0 -6 73 c-3 39 -8 147 -11 239 l-5 167 82 4 c46 1 118 4 161 5 l77 2 0 -45z
m230 -155 l0 -200 110 0 110 0 0 -40 0 -40 -163 0 -164 0 -6 113 c-4 61 -7
169 -7 240 l0 127 60 0 60 0 0 -200z m-622 178 c-3 -7 -40 -117 -82 -244 l-77
-231 -57 -6 c-31 -3 -60 -3 -64 1 -14 14 -210 454 -204 459 2 3 28 6 56 7 l51
1 50 -115 c27 -63 59 -142 71 -175 28 -78 34 -84 41 -38 4 21 27 106 53 190
46 150 47 152 78 156 68 8 88 7 84 -5z m1786 -9 c101 -20 150 -91 125 -181
-21 -83 -77 -118 -187 -118 l-69 0 -7 -37 c-3 -21 -6 -59 -6 -85 l0 -48 -56 0
-56 0 6 218 c4 119 9 229 12 243 l5 26 92 -4 c51 -2 114 -9 141 -14z m-2326
-51 l-3 -43 -60 -2 c-33 -2 -75 -5 -92 -8 -32 -6 -33 -7 -33 -57 l0 -51 95 7
95 7 0 -39 c0 -48 -8 -52 -100 -52 -38 0 -72 -5 -75 -11 -4 -6 -4 -35 0 -64
l6 -53 97 1 97 2 3 -36 3 -37 -68 -6 c-240 -21 -243 -21 -244 5 0 13 -8 119
-18 234 -10 116 -16 213 -12 217 5 6 177 22 279 27 33 1 33 1 30 -41z m2820
26 l62 -6 0 -41 0 -40 -99 6 -99 6 -6 -31 c-13 -68 -9 -78 32 -78 20 0 61 -3
90 -6 l52 -7 0 -40 0 -40 -95 6 -95 6 0 -64 0 -65 34 0 c18 0 61 -3 95 -6 60
-7 61 -7 61 -38 0 -17 -4 -36 -8 -41 -8 -12 -285 5 -298 17 -7 7 12 368 22
442 l6 38 92 -6 c50 -4 119 -9 154 -12z m376 -36 c115 -19 166 -64 166 -145 0
-50 -29 -95 -74 -117 -20 -9 -36 -19 -36 -20 0 -2 29 -53 64 -112 36 -60 64
-110 63 -110 -1 -1 -29 1 -62 4 l-59 7 -56 100 c-51 92 -58 100 -85 100 l-30
0 -8 -91 -9 -91 -51 5 c-29 2 -54 6 -56 8 -5 5 27 413 35 457 l6 27 66 -6 c37
-3 94 -10 126 -16z m-3728 -32 c83 -39 124 -110 124 -215 -1 -102 -59 -182
-158 -215 -47 -17 -249 -42 -258 -33 -10 9 -58 457 -50 464 10 11 98 20 201
21 76 2 98 -2 141 -22z m-1072 -359 c181 -336 441 -688 724 -978 l103 -107
-93 -17 c-51 -9 -147 -27 -213 -40 -248 -48 -264 -49 -287 -29 -68 61 -321
388 -445 574 -145 218 -353 595 -337 609 17 15 405 107 465 110 12 1 38 -39
83 -122z m5728 97 c68 -14 124 -27 126 -28 5 -5 -175 -360 -228 -449 -54 -92
-226 -327 -238 -327 -4 0 -15 12 -24 28 -9 15 -48 61 -87 103 l-70 76 60 79
c81 107 143 211 233 392 47 93 82 152 91 152 8 0 70 -12 137 -26z m-1414 -383
c23 -4 45 -11 48 -14 7 -7 28 -627 21 -633 -3 -3 -52 0 -109 7 -65 7 -174 10
-300 6 l-197 -5 5 276 c3 153 7 296 10 319 6 46 5 45 104 57 56 7 371 -3 418
-13z m-568 -15 c0 -2 -50 -96 -112 -208 l-111 -203 -4 -120 c-4 -135 -9 -165
-24 -165 -6 0 -58 -18 -116 -40 -59 -22 -108 -40 -111 -40 -4 0 6 158 14 225
4 39 1 45 -77 140 l-82 99 49 43 c27 23 74 61 106 83 l56 40 40 -50 41 -51 46
91 c26 50 56 95 66 100 19 11 185 58 207 59 6 1 12 -1 12 -3z m773 -36 c51
-16 100 -35 110 -42 14 -11 19 -48 32 -247 8 -129 16 -235 17 -236 2 -1 23 -9
47 -19 l43 -17 -5 43 c-11 82 -31 408 -25 414 18 18 204 -134 212 -173 3 -15
17 -127 31 -248 14 -121 27 -239 30 -262 l6 -42 -123 59 c-130 62 -291 120
-395 141 -76 16 -70 -10 -78 344 -3 143 -8 272 -11 288 -3 16 -1 27 5 27 6 0
53 -13 104 -30z m-1817 -652 c-26 -92 -57 -226 -67 -293 -6 -44 -14 -83 -18
-87 -3 -3 -468 -84 -1033 -179 -565 -95 -1026 -174 -1025 -175 1 -2 466 10
1032 26 567 16 1031 28 1032 27 3 -4 34 -200 31 -202 -10 -7 -885 -51 -1303
-66 -395 -13 -1479 -7 -1685 10 -736 61 -1030 167 -980 353 19 69 147 189 295
277 39 23 57 31 41 19 -79 -62 -113 -93 -139 -129 -56 -76 -20 -134 101 -160
72 -16 353 -16 527 0 606 56 1666 253 2885 535 151 35 283 64 294 65 14 1 17
-4 12 -21z m1599 -9 c44 -6 90 -13 103 -16 l22 -5 0 -249 0 -249 -45 0 c-25 0
-45 -3 -45 -7 0 -5 20 -84 45 -178 25 -93 45 -173 45 -177 0 -6 -81 -21 -187
-33 l-52 -7 -17 59 c-9 32 -29 103 -45 158 l-27 100 -1 -158 -1 -158 -122 3
-123 3 0 460 0 460 70 6 c84 8 270 1 380 -12z m-656 -171 c18 -79 57 -258 87
-398 30 -140 58 -273 64 -295 5 -21 8 -41 6 -43 -6 -5 -191 27 -220 38 -18 6
-26 17 -26 33 0 37 -21 53 -85 67 -33 7 -66 15 -72 17 -9 3 -13 -4 -13 -21 0
-15 -6 -29 -14 -32 -7 -3 -53 11 -102 31 -49 20 -97 39 -107 42 -10 3 -16 11
-14 17 28 72 105 326 136 446 22 84 44 157 48 161 10 9 234 74 269 78 6 0 25
-61 43 -141z m1006 96 c61 -18 149 -49 198 -69 l87 -37 0 -68 0 -67 -72 17
c-40 9 -90 20 -110 24 l-38 7 0 -49 0 -50 90 -7 90 -7 0 -69 c0 -47 -4 -71
-12 -74 -7 -2 -48 -7 -90 -10 l-78 -7 0 -49 c0 -46 2 -49 23 -44 12 3 61 13
110 24 l87 19 0 -68 0 -67 -102 -41 c-109 -42 -203 -74 -278 -92 -25 -6 -53
-13 -62 -16 -17 -5 -18 20 -18 420 l0 426 33 -7 c17 -3 82 -21 142 -39z
m-1430 -727 l100 -45 43 -88 43 -88 52 58 52 57 95 -21 c52 -12 105 -24 118
-26 22 -4 20 -9 -44 -102 -37 -53 -89 -125 -115 -159 -48 -61 -49 -64 -50
-135 -1 -40 -4 -103 -8 -140 l-6 -66 -65 29 c-36 17 -89 44 -119 62 l-53 32 7
132 7 131 -71 172 c-39 94 -81 189 -92 212 -14 27 -16 39 -7 35 7 -3 58 -26
113 -50z m1765 -197 c6 -129 14 -243 17 -253 3 -13 -15 -37 -63 -83 -84 -81
-157 -131 -273 -188 -82 -40 -216 -85 -225 -75 -4 4 -26 509 -26 600 l0 54
115 29 c63 16 117 27 119 25 4 -4 26 -379 26 -436 l0 -33 45 22 c39 19 45 26
45 53 0 33 -17 319 -24 391 l-3 41 76 32 c42 18 92 40 111 51 19 10 38 15 41
12 4 -4 12 -113 19 -242z m-617 28 c3 -13 9 -158 13 -323 5 -165 9 -304 9
-310 0 -13 -114 -32 -250 -40 -112 -7 -343 9 -358 24 -5 5 -5 152 -1 327 l7
320 231 0 c127 1 254 6 281 11 28 6 53 11 56 12 4 0 9 -9 12 -21z m-1613 -868
c0 -22 -2 -40 -5 -40 -3 0 -40 15 -83 33 -77 32 -77 32 -42 38 19 4 56 7 83 8
l47 1 0 -40z"/>
<path d="M7982 5630 c-42 -26 -62 -73 -62 -146 0 -105 46 -158 136 -158 62 0
100 22 120 69 19 46 18 149 -2 190 -29 62 -127 85 -192 45z"/>
<path d="M8547 5578 c-12 -97 -12 -98 32 -98 79 0 121 37 107 94 -8 31 -27 42
-87 51 l-46 7 -6 -54z"/>
<path d="M9450 5505 c0 -30 -1 -58 -2 -62 -6 -16 94 -14 118 2 24 16 32 57 16
82 -11 17 -58 33 -98 33 l-34 0 0 -55z"/>
<path d="M5608 5543 c-19 -5 -19 -15 6 -218 l11 -90 45 3 c101 8 150 58 150
152 0 69 -25 119 -71 142 -32 17 -100 22 -141 11z"/>
<path d="M8780 4655 l0 -165 45 0 45 0 0 165 0 165 -45 0 -45 0 0 -165z"/>
<path d="M8840 3975 l0 -65 45 0 45 0 0 65 0 65 -45 0 -45 0 0 -65z"/>
<path d="M8206 3840 c-16 -65 -33 -160 -28 -165 11 -11 72 -5 72 8 -1 6 -9 50
-19 97 -14 66 -20 79 -25 60z"/>
<path d="M8780 2940 l0 -170 51 0 c48 0 51 1 45 23 -3 12 -6 88 -6 170 l0 147
-45 0 -45 0 0 -170z"/>
</g>
</svg>
